<?xml version="1.0" standalone="no"?>
<!DOCTYPE svg PUBLIC "-//W3C//DTD SVG 20010904//EN"
 "http://www.w3.org/TR/2001/REC-SVG-20010904/DTD/svg10.dtd">
<svg version="1.0" xmlns="http://www.w3.org/2000/svg"
 width="512.000000pt" height="512.000000pt" viewBox="0 0 512.000000 512.000000"
 preserveAspectRatio="xMidYMid meet">
<metadata>
Created by potrace 1.11, written by Peter Selinger 2001-2013
</metadata>
<g transform="translate(0.000000,512.000000) scale(0.100000,-0.100000)"
fill="#000000" stroke="none">
<path d="M2353 3086 c-192 -44 -282 -151 -271 -320 9 -139 77 -214 268 -296
186 -81 237 -145 175 -218 -66 -78 -277 -63 -404 28 l-41 30 0 -120 0 -121 38
-16 c67 -28 200 -46 302 -40 182 10 290 64 345 172 26 51 30 69 29 139 -1 154
-55 217 -281 327 -152 74 -183 100 -183 156 0 107 203 138 373 58 l48 -22 -3
110 -3 111 -50 13 c-76 21 -268 26 -342 9z"/>
<path d="M1191 2873 c8 -10 55 -66 106 -125 51 -58 93 -109 93 -112 0 -3 -133
-6 -295 -6 l-295 0 0 -70 0 -70 295 0 c162 0 295 -3 295 -6 0 -3 -42 -54 -93
-112 -137 -159 -132 -142 -41 -142 l79 0 143 165 142 165 -142 165 -143 165
-79 0 c-73 0 -78 -1 -65 -17z"/>
<path d="M3642 2725 l-142 -165 142 -165 143 -165 79 0 c91 0 96 -17 -41 142
-51 58 -93 109 -93 112 0 3 133 6 295 6 l295 0 0 70 0 70 -295 0 c-162 0 -295
3 -295 6 0 3 42 54 93 112 137 159 132 142 41 142 l-79 0 -143 -165z"/>
<path d="M2984 2231 c-72 -44 -86 -116 -33 -175 51 -58 141 -61 202 -6 28 25
32 35 32 78 0 57 -20 86 -72 108 -45 19 -92 17 -129 -5z"/>
</g>
</svg>
